<svg version="1.1" id="Layer_1" xmlns="http://www.w3.org/2000/svg" xmlns:xlink="http://www.w3.org/1999/xlink" x="0px" y="0px"
	 width="100%" viewBox="0 0 325 98" enable-background="new 0 0 325 98" xml:space="preserve">
<path fill="#000000" opacity="1.000000" stroke="none" 
	d="
M204.000000,99.000000 
	C136.000015,99.000000 68.500038,99.000000 1.000045,99.000000 
	C1.000030,66.333366 1.000030,33.666725 1.000015,1.000067 
	C109.333275,1.000045 217.666550,1.000045 325.999878,1.000022 
	C325.999908,33.666595 325.999908,66.333191 325.999939,98.999893 
	C285.500000,99.000000 245.000000,99.000000 204.000000,99.000000 
M208.974518,84.922791 
	C216.846146,84.940453 224.723450,85.118896 232.584641,84.840981 
	C234.168625,84.784996 235.691437,82.998436 237.790771,82.487213 
	C238.786209,85.949059 239.599701,89.479965 240.873672,92.836067 
	C241.332962,94.045990 242.898254,94.836067 243.958862,95.817741 
	C244.601044,94.499130 245.969910,93.059174 245.773102,91.880669 
	C243.784851,79.974663 241.181610,68.267914 231.422104,59.578514 
	C243.406281,50.165165 246.032562,37.341759 246.645096,22.623167 
	C244.516327,23.281818 242.756058,23.379372 242.585159,23.951622 
	C241.444855,27.769482 238.554276,27.047361 235.775391,27.027256 
	C227.465439,26.967142 219.151550,26.885063 210.847290,27.110376 
	C209.267715,27.153231 207.725235,28.563786 206.165649,29.343300 
	C207.786789,30.228783 209.384399,31.824936 211.033066,31.879562 
	C219.168457,32.149109 227.321747,31.876719 235.457428,32.141808 
	C236.883636,32.188282 238.256027,33.886162 238.786972,34.610188 
	C229.358337,34.485291 219.929001,34.396526 210.501526,34.212322 
	C207.853882,34.160591 206.897552,35.346291 206.701279,37.369232 
	C206.100372,33.838066 205.772446,30.226801 204.770813,26.813221 
	C204.340515,25.346750 202.511536,24.290688 201.318024,23.048168 
	C200.228439,24.316072 198.225739,25.591900 198.236649,26.850252 
	C198.260422,29.589840 199.496887,32.292709 199.909653,35.059525 
	C202.023148,49.226509 208.696747,59.368542 223.517258,62.758289 
	C224.859802,63.065350 225.855118,64.890404 226.272064,65.872505 
	C222.997101,64.696541 219.789749,63.210182 216.418610,62.475628 
	C214.734451,62.108662 212.214371,62.514641 210.995132,63.603889 
	C205.497955,68.515030 201.743896,74.625633 200.276520,81.954666 
	C199.692764,84.870430 199.667084,87.938240 198.776871,90.743080 
	C197.370697,95.173698 199.097473,96.534889 201.641205,96.392319 
	C204.570038,94.416718 206.250626,92.401482 208.123703,92.203033 
	C212.031769,91.789001 216.040573,92.419357 220.009750,92.464607 
	C224.785355,92.519035 229.571518,92.556511 234.333221,92.270294 
	C235.504700,92.199883 236.599014,90.845383 237.728806,90.081200 
	C236.466171,89.399620 235.203537,88.718040 233.015976,88.018288 
	C224.699356,88.025543 216.382751,88.032799 207.388016,87.805733 
	C206.963211,86.771400 206.538406,85.737068 206.767426,84.748413 
	C207.200974,84.734589 207.634506,84.720772 208.974518,84.922791 
M21.008568,66.680817 
	C31.834034,71.121513 42.614399,70.984894 53.130253,65.880127 
	C54.515285,65.207787 55.766052,62.795326 55.837513,61.135342 
	C56.137955,54.156166 56.087688,47.152798 55.862312,40.168079 
	C55.819382,38.837700 54.489521,36.493176 53.604477,36.420082 
	C48.549171,36.002586 43.444401,36.010662 38.368305,36.197212 
	C37.568012,36.226627 36.134331,37.980473 36.227093,38.796825 
	C36.358051,39.949314 37.420105,41.464149 38.478924,41.933598 
	C40.076569,42.641941 42.014378,42.586132 43.808891,42.846252 
	C44.919044,43.007175 46.235699,42.824078 47.104530,43.365395 
	C49.648247,44.950256 48.683708,60.560650 46.046028,61.957085 
	C36.542637,66.988342 17.181028,62.691513 13.853305,47.124298 
	C12.239442,39.574585 12.637190,32.298195 15.790760,24.824944 
	C19.308508,16.488670 24.132523,11.794142 33.215851,12.087192 
	C40.326591,12.316602 47.408600,13.436846 54.857819,14.197481 
	C55.149757,11.120465 54.187115,7.880289 50.377911,6.455752 
	C38.076344,1.855303 25.856979,4.178188 16.561382,12.075749 
	C-0.089364,26.222267 0.118216,52.964527 21.008568,66.680817 
M165.199188,61.237621 
	C163.796249,60.889156 162.393311,60.540691 160.990387,60.192226 
	C160.532196,60.499107 160.074005,60.805988 159.615829,61.112865 
	C160.470825,63.082050 160.773941,65.840210 162.272934,66.888733 
	C170.294281,72.499542 187.097275,70.193321 193.871719,62.923756 
	C198.579544,57.871841 197.628876,48.587135 193.216690,43.181393 
	C187.766083,36.503368 179.650558,34.569664 172.986893,30.129744 
	C168.785278,27.330256 166.042038,22.832308 167.362488,18.577209 
	C168.663132,14.385970 174.169876,11.052659 178.686234,11.669805 
	C183.858795,12.376618 189.038208,13.033344 194.295135,13.722381 
	C195.659348,8.364638 194.103180,5.722539 188.676865,5.270596 
	C185.536591,5.009048 182.356796,4.891242 179.213242,5.057551 
	C166.590820,5.725341 159.226303,13.005199 160.079178,24.370739 
	C160.625702,31.653553 167.013611,34.380974 172.128265,37.786659 
	C175.973206,40.346882 180.430374,41.989243 184.268066,44.558445 
	C192.314728,49.945415 191.662888,57.660652 183.057495,62.246922 
	C177.169647,65.384865 171.562180,63.349777 165.199188,61.237621 
M88.547813,69.984268 
	C97.800850,68.720055 101.403625,65.745140 99.283127,61.289791 
	C97.070877,62.055809 94.915230,62.978645 92.670029,63.548767 
	C83.499611,65.877411 75.921814,62.124603 73.571732,54.203030 
	C72.101234,49.246338 73.315857,47.888374 78.411453,47.999214 
	C85.690910,48.157558 92.982986,48.139957 100.255211,47.843121 
	C101.520416,47.791477 103.690437,46.053429 103.758583,44.986717 
	C103.965561,41.746689 103.900620,38.280399 102.939674,35.216454 
	C100.667336,27.971193 94.001923,23.568014 86.941635,22.910028 
	C77.746117,22.053047 72.231796,26.542154 68.430939,34.265797 
	C66.042198,39.119907 66.241554,45.461346 66.089706,51.157116 
	C65.792984,62.286987 76.744896,71.584267 88.547813,69.984268 
M142.802750,36.072159 
	C143.198761,39.688988 143.812317,43.298126 143.940536,46.924419 
	C144.140305,52.574356 143.793533,58.250584 144.173431,63.882278 
	C144.268173,65.286873 146.256424,66.563736 147.374374,67.899307 
	C148.248108,66.580627 149.857513,65.273033 149.877579,63.941498 
	C150.020035,54.485928 149.918076,45.023811 149.724625,35.567242 
	C149.625458,30.719820 141.170532,21.290144 134.919464,22.854357 
	C130.031891,24.077377 125.386459,26.268066 120.440033,28.100437 
	C120.440033,27.121769 120.440033,25.313494 120.440033,23.446396 
	C114.209854,24.126350 112.782913,26.003149 113.089569,31.310732 
	C113.558319,39.423817 113.784012,47.554714 113.915382,55.681244 
	C113.955162,58.142017 113.171112,60.606693 113.074646,63.081673 
	C112.973526,65.675919 112.506142,68.884941 116.603058,68.843086 
	C120.320755,68.805115 119.966301,65.865891 119.987679,63.383640 
	C120.024940,59.058258 119.827332,54.724106 120.039047,50.408882 
	C120.249062,46.128178 120.779594,41.858849 121.283035,37.597939 
	C121.989021,31.622889 126.580811,30.001938 131.443527,29.088011 
	C136.718918,28.096521 140.460739,30.361847 142.802750,36.072159 
M284.743896,30.719084 
	C288.800812,41.360142 293.027588,51.941612 296.796906,62.683594 
	C297.754913,65.413811 298.319061,68.366379 301.580109,67.762276 
	C303.755920,67.359207 306.598175,65.509583 307.404266,63.580963 
	C312.385040,51.663982 316.914948,39.556709 321.445953,27.456980 
	C321.821167,26.454920 321.497040,24.571320 320.768890,23.945520 
	C320.001190,23.285732 317.915710,23.095024 317.195435,23.676807 
	C315.893524,24.728348 314.868256,26.391401 314.270050,28.000776 
	C310.814728,37.296368 307.539001,46.658573 304.136292,55.974041 
	C303.786743,56.931011 302.999115,57.727959 302.050415,59.142376 
	C301.114044,57.176987 300.347961,55.921223 299.894867,54.561169 
	C296.822357,45.338993 293.899200,36.065807 290.703491,26.887209 
	C290.191193,25.415873 288.756500,23.966230 287.365723,23.210209 
	C286.502869,22.741159 283.843811,23.559727 283.832733,23.866732 
	C283.759644,25.894852 284.186096,27.940979 284.743896,30.719084 
M261.202332,24.087498 
	C257.797211,22.212543 255.145905,22.599792 255.084442,27.007551 
	C254.912949,39.305759 254.907684,51.610897 255.202942,63.904499 
	C255.235809,65.272423 257.626190,66.583717 258.923218,67.921280 
	C259.947479,66.568520 261.781311,65.258888 261.856049,63.855545 
	C262.182770,57.722488 261.974457,51.562119 262.005829,45.411892 
	C262.067535,33.318977 266.768829,28.880713 278.560059,29.892090 
	C278.560059,27.512125 278.560059,25.153250 278.560059,23.320560 
	C271.629974,20.265402 267.685638,24.855087 263.186035,28.965725 
	C262.491943,27.081823 262.052765,25.889826 261.202332,24.087498 
z"/>
<path fill="#121212" opacity="1.000000" stroke="none" 
	d="
M20.674267,66.504463 
	C0.118216,52.964527 -0.089364,26.222267 16.561382,12.075749 
	C25.856979,4.178188 38.076344,1.855303 50.377911,6.455752 
	C54.187115,7.880289 55.149757,11.120465 54.857819,14.197481 
	C47.408600,13.436846 40.326591,12.316602 33.215851,12.087192 
	C24.132523,11.794142 19.308508,16.488670 15.790760,24.824944 
	C12.637190,32.298195 12.239442,39.574585 13.853305,47.124298 
	C17.181028,62.691513 36.542637,66.988342 46.046028,61.957085 
	C48.683708,60.560650 49.648247,44.950256 47.104530,43.365395 
	C46.235699,42.824078 44.919044,43.007175 43.808891,42.846252 
	C42.014378,42.586132 40.076569,42.641941 38.478924,41.933598 
	C37.420105,41.464149 36.358051,39.949314 36.227093,38.796825 
	C36.134331,37.980473 37.568012,36.226627 38.368305,36.197212 
	C43.444401,36.010662 48.549171,36.002586 53.604477,36.420082 
	C54.489521,36.493176 55.819382,38.837700 55.862312,40.168079 
	C56.087688,47.152798 56.137955,54.156166 55.837513,61.135342 
	C55.766052,62.795326 54.515285,65.207787 53.130253,65.880127 
	C42.614399,70.984894 31.834034,71.121513 20.674267,66.504463 
z"/>
<path fill="#161211" opacity="1.000000" stroke="none" 
	d="
M227.011673,66.010513 
	C225.855118,64.890404 224.859802,63.065350 223.517258,62.758289 
	C208.696747,59.368542 202.023148,49.226509 199.909653,35.059525 
	C199.496887,32.292709 198.260422,29.589840 198.236649,26.850252 
	C198.225739,25.591900 200.228439,24.316072 201.318024,23.048168 
	C202.511536,24.290688 204.340515,25.346750 204.770813,26.813221 
	C205.772446,30.226801 206.100372,33.838066 206.920746,37.664375 
	C207.140228,37.959522 207.009644,37.867424 207.143372,38.074749 
	C207.459305,38.562660 207.693863,38.788960 208.084091,39.081055 
	C208.187393,39.201134 208.159286,39.516682 208.130737,39.862465 
	C208.732040,41.474808 209.361877,42.741364 210.461029,44.012009 
	C217.602478,43.690014 224.274597,43.363937 231.353607,43.025314 
	C233.895508,41.954437 236.030518,40.896114 238.328644,39.585823 
	C238.878922,37.829689 239.266098,36.325523 239.653275,34.821358 
	C238.256027,33.886162 236.883636,32.188282 235.457428,32.141808 
	C227.321747,31.876719 219.168457,32.149109 211.033066,31.879562 
	C209.384399,31.824936 207.786789,30.228783 206.165649,29.343300 
	C207.725235,28.563786 209.267715,27.153231 210.847290,27.110376 
	C219.151550,26.885063 227.465439,26.967142 235.775391,27.027256 
	C238.554276,27.047361 241.444855,27.769482 242.585159,23.951622 
	C242.756058,23.379372 244.516327,23.281818 246.645096,22.623167 
	C246.032562,37.341759 243.406281,50.165165 231.422104,59.578514 
	C241.181610,68.267914 243.784851,79.974663 245.773102,91.880669 
	C245.969910,93.059174 244.601044,94.499130 243.958862,95.817734 
	C242.898254,94.836067 241.332962,94.045990 240.873672,92.836067 
	C239.599701,89.479965 238.786209,85.949059 237.269836,82.097755 
	C236.502090,81.418030 236.255295,81.127754 236.128632,80.538582 
	C237.377457,77.115585 236.611664,75.452347 233.087891,75.632790 
	C233.118011,74.513000 233.039459,73.760017 233.083466,72.772064 
	C231.134827,70.353813 229.063599,68.170540 226.995895,65.993271 
	C226.999420,65.999283 227.011673,66.010521 227.011673,66.010513 
M217.392059,53.509510 
	C223.851593,57.341026 226.694519,56.900414 231.044937,51.043633 
	C230.937912,50.052643 230.851532,48.197903 230.720917,48.194786 
	C224.734634,48.051819 218.744522,48.070667 212.754837,48.070667 
	C212.579056,48.576820 212.403275,49.082977 212.227493,49.589130 
	C213.829803,50.716652 215.432114,51.844177 217.392059,53.509510 
M227.469833,57.496426 
	C227.469833,57.496426 227.521210,57.477081 227.469833,57.496426 
z"/>
<path fill="#121212" opacity="1.000000" stroke="none" 
	d="
M165.558182,61.379219 
	C171.562180,63.349777 177.169647,65.384865 183.057495,62.246922 
	C191.662888,57.660652 192.314728,49.945415 184.268066,44.558445 
	C180.430374,41.989243 175.973206,40.346882 172.128265,37.786659 
	C167.013611,34.380974 160.625702,31.653553 160.079178,24.370739 
	C159.226303,13.005199 166.590820,5.725341 179.213242,5.057551 
	C182.356796,4.891242 185.536591,5.009048 188.676865,5.270596 
	C194.103180,5.722539 195.659348,8.364638 194.295135,13.722381 
	C189.038208,13.033344 183.858795,12.376618 178.686234,11.669805 
	C174.169876,11.052659 168.663132,14.385970 167.362488,18.577209 
	C166.042038,22.832308 168.785278,27.330256 172.986893,30.129744 
	C179.650558,34.569664 187.766083,36.503368 193.216690,43.181393 
	C197.628876,48.587135 198.579544,57.871841 193.871719,62.923756 
	C187.097275,70.193321 170.294281,72.499542 162.272934,66.888733 
	C160.773941,65.840210 160.470825,63.082050 159.615829,61.112865 
	C160.074005,60.805988 160.532196,60.499107 160.990387,60.192226 
	C162.393311,60.540691 163.796249,60.889156 165.558182,61.379219 
z"/>
<path fill="#111111" opacity="1.000000" stroke="none" 
	d="
M88.144127,69.996719 
	C76.744896,71.584267 65.792984,62.286987 66.089706,51.157116 
	C66.241554,45.461346 66.042198,39.119907 68.430939,34.265797 
	C72.231796,26.542154 77.746117,22.053047 86.941635,22.910028 
	C94.001923,23.568014 100.667336,27.971193 102.939674,35.216454 
	C103.900620,38.280399 103.965561,41.746689 103.758583,44.986717 
	C103.690437,46.053429 101.520416,47.791477 100.255211,47.843121 
	C92.982986,48.139957 85.690910,48.157558 78.411453,47.999214 
	C73.315857,47.888374 72.101234,49.246338 73.571732,54.203030 
	C75.921814,62.124603 83.499611,65.877411 92.670029,63.548767 
	C94.915230,62.978645 97.070877,62.055809 99.283127,61.289791 
	C101.403625,65.745140 97.800850,68.720055 88.144127,69.996719 
M74.431000,35.345329 
	C74.008408,37.773228 72.975807,40.552803 76.918777,40.947815 
	C81.342300,41.390972 85.782722,41.881081 90.217300,41.895763 
	C92.083412,41.901943 95.543243,40.742554 95.543457,40.112087 
	C95.544327,37.529366 95.199959,34.385593 93.687325,32.472588 
	C89.763405,27.510063 78.364296,26.808805 74.431000,35.345329 
z"/>
<path fill="#121212" opacity="1.000000" stroke="none" 
	d="
M142.679047,35.691849 
	C140.460739,30.361847 136.718918,28.096521 131.443527,29.088011 
	C126.580811,30.001938 121.989021,31.622889 121.283035,37.597939 
	C120.779594,41.858849 120.249062,46.128178 120.039047,50.408882 
	C119.827332,54.724106 120.024940,59.058258 119.987679,63.383640 
	C119.966301,65.865891 120.320755,68.805115 116.603058,68.843086 
	C112.506142,68.884941 112.973526,65.675919 113.074646,63.081673 
	C113.171112,60.606693 113.955162,58.142017 113.915382,55.681244 
	C113.784012,47.554714 113.558319,39.423817 113.089569,31.310732 
	C112.782913,26.003149 114.209854,24.126350 120.440033,23.446396 
	C120.440033,25.313494 120.440033,27.121769 120.440033,28.100437 
	C125.386459,26.268066 130.031891,24.077377 134.919464,22.854357 
	C141.170532,21.290144 149.625458,30.719820 149.724625,35.567242 
	C149.918076,45.023811 150.020035,54.485928 149.877579,63.941498 
	C149.857513,65.273033 148.248108,66.580627 147.374374,67.899307 
	C146.256424,66.563736 144.268173,65.286873 144.173431,63.882278 
	C143.793533,58.250584 144.140305,52.574356 143.940536,46.924419 
	C143.812317,43.298126 143.198761,39.688988 142.679047,35.691849 
z"/>
<path fill="#121212" opacity="1.000000" stroke="none" 
	d="
M284.596863,30.350163 
	C284.186096,27.940979 283.759644,25.894852 283.832733,23.866732 
	C283.843811,23.559727 286.502869,22.741159 287.365723,23.210209 
	C288.756500,23.966230 290.191193,25.415873 290.703491,26.887209 
	C293.899200,36.065807 296.822357,45.338993 299.894867,54.561169 
	C300.347961,55.921223 301.114044,57.176987 302.050415,59.142376 
	C302.999115,57.727959 303.786743,56.931011 304.136292,55.974041 
	C307.539001,46.658573 310.814728,37.296368 314.270050,28.000776 
	C314.868256,26.391401 315.893524,24.728348 317.195435,23.676807 
	C317.915710,23.095024 320.001190,23.285732 320.768890,23.945520 
	C321.497040,24.571320 321.821167,26.454920 321.445953,27.456980 
	C316.914948,39.556709 312.385040,51.663982 307.404266,63.580963 
	C306.598175,65.509583 303.755920,67.359207 301.580109,67.762276 
	C298.319061,68.366379 297.754913,65.413811 296.796906,62.683594 
	C293.027588,51.941612 288.800812,41.360142 284.596863,30.350163 
z"/>
<path fill="#111111" opacity="1.000000" stroke="none" 
	d="
M261.407959,24.392664 
	C262.052765,25.889826 262.491943,27.081823 263.186035,28.965725 
	C267.685638,24.855087 271.629974,20.265402 278.560059,23.320560 
	C278.560059,25.153250 278.560059,27.512125 278.560059,29.892090 
	C266.768829,28.880713 262.067535,33.318977 262.005829,45.411892 
	C261.974457,51.562119 262.182770,57.722488 261.856049,63.855545 
	C261.781311,65.258888 259.947479,66.568520 258.923218,67.921280 
	C257.626190,66.583717 255.235809,65.272423 255.202942,63.904499 
	C254.907684,51.610897 254.912949,39.305759 255.084442,27.007551 
	C255.145905,22.599792 257.797211,22.212543 261.407959,24.392664 
z"/>
<path fill="#151111" opacity="1.000000" stroke="none" 
	d="
M233.940903,88.036469 
	C235.203537,88.718040 236.466171,89.399620 237.728806,90.081207 
	C236.599014,90.845383 235.504700,92.199883 234.333221,92.270294 
	C229.571518,92.556511 224.785355,92.519035 220.009750,92.464607 
	C216.040573,92.419357 212.031769,91.789001 208.123703,92.203033 
	C206.250626,92.401482 204.570038,94.416718 201.641205,96.392319 
	C199.097473,96.534889 197.370697,95.173698 198.776871,90.743080 
	C199.667084,87.938240 199.692764,84.870430 200.276520,81.954666 
	C201.743896,74.625633 205.497955,68.515030 210.995132,63.603889 
	C212.214371,62.514641 214.734451,62.108662 216.418610,62.475628 
	C219.789749,63.210182 222.997101,64.696541 226.641876,65.941513 
	C227.011673,66.010521 226.999420,65.999283 226.862030,66.363358 
	C224.075531,67.151169 221.418427,67.960342 218.779266,67.905487 
	C215.108215,67.829178 212.684113,68.874069 211.691376,72.847336 
	C210.914551,73.973320 210.458832,74.968895 209.870560,76.248703 
	C209.164612,77.625427 208.591217,78.717911 207.733826,80.007858 
	C207.004410,81.704460 206.559006,83.203598 206.113602,84.702736 
	C206.538406,85.737068 206.963211,86.771400 208.057327,88.158600 
	C217.131393,88.353134 225.536148,88.194801 233.940903,88.036469 
z"/>
<path fill="#D21C4B" opacity="1.000000" stroke="none" 
	d="
M208.159286,39.516678 
	C208.159286,39.516682 208.187393,39.201134 208.040131,38.809074 
	C207.598480,38.233814 207.304062,38.050617 207.009644,37.867424 
	C207.009644,37.867424 207.140228,37.959522 207.196289,37.901512 
	C206.897552,35.346291 207.853882,34.160591 210.501526,34.212322 
	C219.929001,34.396526 229.358337,34.485291 239.220123,34.715775 
	C239.266098,36.325523 238.878922,37.829689 237.846710,39.519844 
	C227.520874,39.642784 217.840088,39.579731 208.159286,39.516678 
z"/>
<path fill="#F9D815" opacity="1.000000" stroke="none" 
	d="
M236.008514,80.837479 
	C236.255295,81.127754 236.502090,81.418030 236.995667,81.859024 
	C235.691437,82.998436 234.168625,84.784996 232.584641,84.840981 
	C224.723450,85.118896 216.846146,84.940453 208.515686,84.422791 
	C209.436737,82.951859 210.783981,81.200325 212.201950,81.141075 
	C219.500763,80.836098 226.817719,80.965523 234.444489,80.965515 
	C235.176590,80.937653 235.592560,80.887566 236.008514,80.837479 
z"/>
<path fill="#F4D63F" opacity="1.000000" stroke="none" 
	d="
M234.128342,80.943298 
	C226.817719,80.965523 219.500763,80.836098 212.201950,81.141075 
	C210.783981,81.200325 209.436737,82.951859 208.062469,84.314873 
	C207.634506,84.720772 207.200974,84.734589 206.440521,84.725571 
	C206.559006,83.203598 207.004410,81.704460 208.193817,80.097824 
	C214.030472,79.988518 219.126587,79.871216 224.214447,80.026100 
	C227.525314,80.126900 230.824127,80.623840 234.128342,80.943298 
z"/>
<path fill="#242419" opacity="1.000000" stroke="none" 
	d="
M233.478439,88.027374 
	C225.536148,88.194801 217.131393,88.353134 208.396393,88.275764 
	C216.382751,88.032799 224.699356,88.025543 233.478439,88.027374 
z"/>
<path fill="#000000" opacity="1.000000" stroke="none" 
	d="
M234.444489,80.965515 
	C230.824127,80.623840 227.525314,80.126900 224.214447,80.026100 
	C219.126587,79.871216 214.030472,79.988518 208.477844,79.900360 
	C208.591217,78.717911 209.164612,77.625427 210.336273,76.251862 
	C215.923721,76.312653 220.909164,76.806572 225.903732,76.929535 
	C228.253159,76.987366 230.620163,76.331848 232.979202,75.999596 
	C236.611664,75.452347 237.377457,77.115585 236.128632,80.538574 
	C235.592560,80.887566 235.176590,80.937653 234.444489,80.965515 
z"/>
<path fill="#000000" opacity="1.000000" stroke="none" 
	d="
M212.012482,72.716919 
	C212.684113,68.874069 215.108215,67.829178 218.779266,67.905487 
	C221.418427,67.960342 224.075531,67.151169 226.858505,66.357346 
	C229.063599,68.170540 231.134827,70.353813 232.642380,72.773254 
	C225.389969,72.911919 218.701233,72.814415 212.012482,72.716919 
z"/>
<path fill="#000000" opacity="1.000000" stroke="none" 
	d="
M208.130737,39.862465 
	C217.840088,39.579731 227.520874,39.642784 237.683594,39.771812 
	C236.030518,40.896114 233.895508,41.954437 230.891388,43.017632 
	C223.345444,43.350975 216.668594,43.679447 209.991730,44.007919 
	C209.361877,42.741364 208.732040,41.474808 208.130737,39.862465 
z"/>
<path fill="#EE1344" opacity="1.000000" stroke="none" 
	d="
M211.691376,72.847336 
	C218.701233,72.814415 225.389969,72.911919 232.519806,73.008224 
	C233.039459,73.760017 233.118011,74.513000 233.087891,75.632790 
	C230.620163,76.331848 228.253159,76.987366 225.903732,76.929535 
	C220.909164,76.806572 215.923721,76.312653 210.468842,75.967636 
	C210.458832,74.968895 210.914551,73.973320 211.691376,72.847336 
z"/>
<path fill="#C2A924" opacity="1.000000" stroke="none" 
	d="
M230.426163,51.489414 
	C226.694519,56.900414 223.851593,57.341026 217.356476,52.872261 
	C221.689316,51.986477 226.057739,51.737946 230.426163,51.489414 
z"/>
<path fill="#010101" opacity="1.000000" stroke="none" 
	d="
M230.735550,51.266525 
	C226.057739,51.737946 221.689316,51.986477 217.177658,52.603355 
	C215.432114,51.844177 213.829803,50.716652 212.227493,49.589130 
	C212.403275,49.082977 212.579056,48.576820 212.754837,48.070667 
	C218.744522,48.070667 224.734634,48.051819 230.720917,48.194786 
	C230.851532,48.197903 230.937912,50.052643 230.735550,51.266525 
z"/>
<path fill="#1F1C1C" opacity="1.000000" stroke="none" 
	d="
M210.461029,44.012001 
	C216.668594,43.679447 223.345444,43.350975 230.484528,43.030182 
	C224.274597,43.363937 217.602478,43.690014 210.461029,44.012001 
z"/>
<path fill="#000000" opacity="1.000000" stroke="none" 
	d="
M227.495514,57.486755 
	C227.521210,57.477081 227.469833,57.496426 227.495514,57.486755 
z"/>
<path fill="#000000" opacity="1.000000" stroke="none" 
	d="
M207.143372,38.074745 
	C207.304062,38.050617 207.598480,38.233814 207.936829,38.688995 
	C207.693863,38.788960 207.459305,38.562660 207.143372,38.074745 
z"/>
<path fill="#010101" opacity="1.000000" stroke="none" 
	d="
M74.589203,34.981400 
	C78.364296,26.808805 89.763405,27.510063 93.687325,32.472588 
	C95.199959,34.385593 95.544327,37.529366 95.543457,40.112087 
	C95.543243,40.742554 92.083412,41.901943 90.217300,41.895763 
	C85.782722,41.881081 81.342300,41.390972 76.918777,40.947815 
	C72.975807,40.552803 74.008408,37.773228 74.589203,34.981400 
z"/>
</svg>